<?xml version="1.0" encoding="UTF-8" standalone="no"?>
<!DOCTYPE svg PUBLIC "-//W3C//DTD SVG 1.1//EN"
 "http://www.w3.org/Graphics/SVG/1.1/DTD/svg11.dtd">
<!-- Generated by graphviz version 2.47.0 (20210316.0004)
 -->
<!-- Title: dependencies Pages: 1 -->
<svg width="1228pt" height="284pt"
 viewBox="0.00 0.00 1228.00 284.00" xmlns="http://www.w3.org/2000/svg" xmlns:xlink="http://www.w3.org/1999/xlink">
<g id="graph0" class="graph" transform="scale(1 1) rotate(0) translate(4 280)">
<title>dependencies</title>
<polygon fill="white" stroke="transparent" points="-4,4 -4,-280 1224,-280 1224,4 -4,4"/>
<text text-anchor="start" x="589.01" y="-42.4" font-family="Times-12" font-weight="bold" font-size="14.00">Legend</text>
<polygon fill="#ffffb3" stroke="transparent" points="376,-10 376,-30 396,-30 396,-10 376,-10"/>
<text text-anchor="start" x="399.63" y="-15.4" font-family="Times-12" font-size="14.00"> &#160;Declarations</text>
<polygon fill="#8dd3c7" stroke="transparent" points="489,-10 489,-30 509,-30 509,-10 489,-10"/>
<text text-anchor="start" x="512.73" y="-15.4" font-family="Times-12" font-size="14.00"> &#160;Module</text>
<polygon fill="#80b1d3" stroke="transparent" points="575,-10 575,-30 595,-30 595,-10 575,-10"/>
<text text-anchor="start" x="598.78" y="-15.4" font-family="Times-12" font-size="14.00"> &#160;Bootstrap</text>
<polygon fill="#fdb462" stroke="transparent" points="672,-10 672,-30 692,-30 692,-10 672,-10"/>
<text text-anchor="start" x="695.67" y="-15.4" font-family="Times-12" font-size="14.00"> &#160;Providers</text>
<polygon fill="#fb8072" stroke="transparent" points="768,-10 768,-30 788,-30 788,-10 768,-10"/>
<text text-anchor="start" x="791.73" y="-15.4" font-family="Times-12" font-size="14.00"> &#160;Exports</text>
<g id="clust1" class="cluster">
<title>cluster_AppModule</title>
<polygon fill="none" stroke="black" stroke-dasharray="1,5" points="8,-70 8,-268 1212,-268 1212,-70 8,-70"/>
</g>
<g id="clust10" class="cluster">
<title>cluster_AppModule_imports</title>
<polygon fill="none" stroke="black" points="1060,-78 1060,-130 1204,-130 1204,-78 1060,-78"/>
</g>
<g id="clust2" class="cluster">
<title>cluster_AppModule_declarations</title>
<polygon fill="none" stroke="black" points="16,-78 16,-130 1052,-130 1052,-78 16,-78"/>
</g>
<g id="clust12" class="cluster">
<title>cluster_AppModule_bootstrap</title>
<polygon fill="none" stroke="black" points="517,-208 517,-260 641,-260 641,-208 517,-208"/>
</g>
<!-- AddExpenseComponent -->
<g id="node1" class="node">
<title>AddExpenseComponent</title>
<polygon fill="#ffffb3" stroke="black" points="1044.37,-122 891.63,-122 891.63,-86 1044.37,-86 1044.37,-122"/>
<text text-anchor="middle" x="968" y="-99.8" font-family="Times,serif" font-size="14.00">AddExpenseComponent</text>
</g>
<!-- AppModule -->
<g id="node8" class="node">
<title>AppModule</title>
<polygon fill="#8dd3c7" stroke="black" points="620.66,-187 617.66,-191 596.66,-191 593.66,-187 537.34,-187 537.34,-151 620.66,-151 620.66,-187"/>
<text text-anchor="middle" x="579" y="-164.8" font-family="Times,serif" font-size="14.00">AppModule</text>
</g>
<!-- AddExpenseComponent&#45;&gt;AppModule -->
<g id="edge1" class="edge">
<title>AddExpenseComponent&#45;&gt;AppModule</title>
<path fill="none" stroke="black" d="M968,-122.11C968,-141.34 968,-169 968,-169 968,-169 631,-169 631,-169"/>
<polygon fill="black" stroke="black" points="631,-165.5 621,-169 631,-172.5 631,-165.5"/>
</g>
<!-- AddGroupComponent -->
<g id="node2" class="node">
<title>AddGroupComponent</title>
<polygon fill="#ffffb3" stroke="black" points="873.71,-122 732.29,-122 732.29,-86 873.71,-86 873.71,-122"/>
<text text-anchor="middle" x="803" y="-99.8" font-family="Times,serif" font-size="14.00">AddGroupComponent</text>
</g>
<!-- AddGroupComponent&#45;&gt;AppModule -->
<g id="edge2" class="edge">
<title>AddGroupComponent&#45;&gt;AppModule</title>
<path fill="none" stroke="black" d="M803,-122.03C803,-138.4 803,-160 803,-160 803,-160 630.87,-160 630.87,-160"/>
<polygon fill="black" stroke="black" points="630.87,-156.5 620.87,-160 630.87,-163.5 630.87,-156.5"/>
</g>
<!-- AddUserComponent -->
<g id="node3" class="node">
<title>AddUserComponent</title>
<polygon fill="#ffffb3" stroke="black" points="713.87,-122 582.13,-122 582.13,-86 713.87,-86 713.87,-122"/>
<text text-anchor="middle" x="648" y="-99.8" font-family="Times,serif" font-size="14.00">AddUserComponent</text>
</g>
<!-- AddUserComponent&#45;&gt;AppModule -->
<g id="edge3" class="edge">
<title>AddUserComponent&#45;&gt;AppModule</title>
<path fill="none" stroke="black" d="M601.45,-122.11C601.45,-122.11 601.45,-140.99 601.45,-140.99"/>
<polygon fill="black" stroke="black" points="597.95,-140.99 601.45,-150.99 604.95,-140.99 597.95,-140.99"/>
</g>
<!-- AppComponent -->
<g id="node4" class="node">
<title>AppComponent</title>
<polygon fill="#ffffb3" stroke="black" points="563.94,-122 458.06,-122 458.06,-86 563.94,-86 563.94,-122"/>
<text text-anchor="middle" x="511" y="-99.8" font-family="Times,serif" font-size="14.00">AppComponent</text>
</g>
<!-- AppComponent&#45;&gt;AppModule -->
<g id="edge4" class="edge">
<title>AppComponent&#45;&gt;AppModule</title>
<path fill="none" stroke="black" d="M550.45,-122.11C550.45,-122.11 550.45,-140.99 550.45,-140.99"/>
<polygon fill="black" stroke="black" points="546.95,-140.99 550.45,-150.99 553.95,-140.99 546.95,-140.99"/>
</g>
<!-- GruopComponent -->
<g id="node5" class="node">
<title>GruopComponent</title>
<polygon fill="#ffffb3" stroke="black" points="440.6,-122 323.4,-122 323.4,-86 440.6,-86 440.6,-122"/>
<text text-anchor="middle" x="382" y="-99.8" font-family="Times,serif" font-size="14.00">GruopComponent</text>
</g>
<!-- GruopComponent&#45;&gt;AppModule -->
<g id="edge5" class="edge">
<title>GruopComponent&#45;&gt;AppModule</title>
<path fill="none" stroke="black" d="M382,-122.03C382,-138.4 382,-160 382,-160 382,-160 527.22,-160 527.22,-160"/>
<polygon fill="black" stroke="black" points="527.22,-163.5 537.22,-160 527.22,-156.5 527.22,-163.5"/>
</g>
<!-- HomeComponent -->
<g id="node6" class="node">
<title>HomeComponent</title>
<polygon fill="#ffffb3" stroke="black" points="305.55,-122 190.45,-122 190.45,-86 305.55,-86 305.55,-122"/>
<text text-anchor="middle" x="248" y="-99.8" font-family="Times,serif" font-size="14.00">HomeComponent</text>
</g>
<!-- HomeComponent&#45;&gt;AppModule -->
<g id="edge6" class="edge">
<title>HomeComponent&#45;&gt;AppModule</title>
<path fill="none" stroke="black" d="M248,-122.11C248,-141.34 248,-169 248,-169 248,-169 527.08,-169 527.08,-169"/>
<polygon fill="black" stroke="black" points="527.08,-172.5 537.08,-169 527.08,-165.5 527.08,-172.5"/>
</g>
<!-- ShowResultComponent -->
<g id="node7" class="node">
<title>ShowResultComponent</title>
<polygon fill="#ffffb3" stroke="black" points="172.5,-122 23.5,-122 23.5,-86 172.5,-86 172.5,-122"/>
<text text-anchor="middle" x="98" y="-99.8" font-family="Times,serif" font-size="14.00">ShowResultComponent</text>
</g>
<!-- ShowResultComponent&#45;&gt;AppModule -->
<g id="edge7" class="edge">
<title>ShowResultComponent&#45;&gt;AppModule</title>
<path fill="none" stroke="black" d="M98,-122.29C98,-144.21 98,-178 98,-178 98,-178 527.16,-178 527.16,-178"/>
<polygon fill="black" stroke="black" points="527.16,-181.5 537.16,-178 527.16,-174.5 527.16,-181.5"/>
</g>
<!-- AppComponent  -->
<g id="node10" class="node">
<title>AppComponent </title>
<polygon fill="#80b1d3" stroke="black" points="633.44,-252 524.56,-252 524.56,-216 633.44,-216 633.44,-252"/>
<text text-anchor="middle" x="579" y="-229.8" font-family="Times,serif" font-size="14.00">AppComponent </text>
</g>
<!-- AppModule&#45;&gt;AppComponent  -->
<g id="edge9" class="edge">
<title>AppModule&#45;&gt;AppComponent </title>
<path fill="none" stroke="black" stroke-dasharray="1,5" d="M579,-187.11C579,-187.11 579,-205.99 579,-205.99"/>
<polygon fill="black" stroke="black" points="575.5,-205.99 579,-215.99 582.5,-205.99 575.5,-205.99"/>
</g>
<!-- AppRoutingModule -->
<g id="node9" class="node">
<title>AppRoutingModule</title>
<polygon fill="#8dd3c7" stroke="black" points="1196.27,-122 1193.27,-126 1172.27,-126 1169.27,-122 1067.73,-122 1067.73,-86 1196.27,-86 1196.27,-122"/>
<text text-anchor="middle" x="1132" y="-99.8" font-family="Times,serif" font-size="14.00">AppRoutingModule</text>
</g>
<!-- AppRoutingModule&#45;&gt;AppModule -->
<g id="edge8" class="edge">
<title>AppRoutingModule&#45;&gt;AppModule</title>
<path fill="none" stroke="black" d="M1132,-122.29C1132,-144.21 1132,-178 1132,-178 1132,-178 631.02,-178 631.02,-178"/>
<polygon fill="black" stroke="black" points="631.02,-174.5 621.02,-178 631.02,-181.5 631.02,-174.5"/>
</g>
</g>
</svg>
