<?xml version="1.0" encoding="UTF-8" standalone="no"?>
<!DOCTYPE svg PUBLIC "-//W3C//DTD SVG 1.1//EN"
 "http://www.w3.org/Graphics/SVG/1.1/DTD/svg11.dtd">
<!-- Generated by graphviz version 2.47.0 (20210316.0004)
 -->
<!-- Title: dependencies Pages: 1 -->
<svg width="1372pt" height="284pt"
 viewBox="0.00 0.00 1372.00 284.00" xmlns="http://www.w3.org/2000/svg" xmlns:xlink="http://www.w3.org/1999/xlink">
<g id="graph0" class="graph" transform="scale(1 1) rotate(0) translate(4 280)">
<title>dependencies</title>
<polygon fill="white" stroke="transparent" points="-4,4 -4,-280 1368,-280 1368,4 -4,4"/>
<text text-anchor="start" x="661.01" y="-42.4" font-family="Times-12" font-weight="bold" font-size="14.00">Legend</text>
<polygon fill="#ffffb3" stroke="transparent" points="448,-10 448,-30 468,-30 468,-10 448,-10"/>
<text text-anchor="start" x="471.63" y="-15.4" font-family="Times-12" font-size="14.00"> &#160;Declarations</text>
<polygon fill="#8dd3c7" stroke="transparent" points="561,-10 561,-30 581,-30 581,-10 561,-10"/>
<text text-anchor="start" x="584.73" y="-15.4" font-family="Times-12" font-size="14.00"> &#160;Module</text>
<polygon fill="#80b1d3" stroke="transparent" points="647,-10 647,-30 667,-30 667,-10 647,-10"/>
<text text-anchor="start" x="670.78" y="-15.4" font-family="Times-12" font-size="14.00"> &#160;Bootstrap</text>
<polygon fill="#fdb462" stroke="transparent" points="744,-10 744,-30 764,-30 764,-10 744,-10"/>
<text text-anchor="start" x="767.67" y="-15.4" font-family="Times-12" font-size="14.00"> &#160;Providers</text>
<polygon fill="#fb8072" stroke="transparent" points="840,-10 840,-30 860,-30 860,-10 840,-10"/>
<text text-anchor="start" x="863.73" y="-15.4" font-family="Times-12" font-size="14.00"> &#160;Exports</text>
<g id="clust1" class="cluster">
<title>cluster_AppModule</title>
<polygon fill="none" stroke="black" stroke-dasharray="1,5" points="8,-70 8,-268 1212,-268 1212,-70 8,-70"/>
</g>
<g id="clust2" class="cluster">
<title>cluster_AppModule_declarations</title>
<polygon fill="none" stroke="black" points="168,-78 168,-130 1204,-130 1204,-78 168,-78"/>
</g>
<g id="clust10" class="cluster">
<title>cluster_AppModule_imports</title>
<polygon fill="none" stroke="black" points="16,-78 16,-130 160,-130 160,-78 16,-78"/>
</g>
<g id="clust12" class="cluster">
<title>cluster_AppModule_bootstrap</title>
<polygon fill="none" stroke="black" points="908,-208 908,-260 1032,-260 1032,-208 908,-208"/>
</g>
<g id="clust20" class="cluster">
<title>cluster_AppServerModule</title>
<polygon fill="none" stroke="black" stroke-dasharray="1,5" points="1220,-208 1220,-260 1356,-260 1356,-208 1220,-208"/>
</g>
<!-- AddExpenseComponent -->
<g id="node1" class="node">
<title>AddExpenseComponent</title>
<polygon fill="#ffffb3" stroke="black" points="1196.37,-122 1043.63,-122 1043.63,-86 1196.37,-86 1196.37,-122"/>
<text text-anchor="middle" x="1120" y="-99.8" font-family="Times,serif" font-size="14.00">AddExpenseComponent</text>
</g>
<!-- AppModule -->
<g id="node8" class="node">
<title>AppModule</title>
<polygon fill="#8dd3c7" stroke="black" points="772.66,-187 769.66,-191 748.66,-191 745.66,-187 689.34,-187 689.34,-151 772.66,-151 772.66,-187"/>
<text text-anchor="middle" x="731" y="-164.8" font-family="Times,serif" font-size="14.00">AppModule</text>
</g>
<!-- AddExpenseComponent&#45;&gt;AppModule -->
<g id="edge1" class="edge">
<title>AddExpenseComponent&#45;&gt;AppModule</title>
<path fill="none" stroke="black" d="M1120,-122.11C1120,-141.34 1120,-169 1120,-169 1120,-169 783,-169 783,-169"/>
<polygon fill="black" stroke="black" points="783,-165.5 773,-169 783,-172.5 783,-165.5"/>
</g>
<!-- AddGroupComponent -->
<g id="node2" class="node">
<title>AddGroupComponent</title>
<polygon fill="#ffffb3" stroke="black" points="1025.71,-122 884.29,-122 884.29,-86 1025.71,-86 1025.71,-122"/>
<text text-anchor="middle" x="955" y="-99.8" font-family="Times,serif" font-size="14.00">AddGroupComponent</text>
</g>
<!-- AddGroupComponent&#45;&gt;AppModule -->
<g id="edge2" class="edge">
<title>AddGroupComponent&#45;&gt;AppModule</title>
<path fill="none" stroke="black" d="M899.96,-122.03C899.96,-138.4 899.96,-160 899.96,-160 899.96,-160 782.77,-160 782.77,-160"/>
<polygon fill="black" stroke="black" points="782.77,-156.5 772.77,-160 782.77,-163.5 782.77,-156.5"/>
</g>
<!-- AddUserComponent -->
<g id="node3" class="node">
<title>AddUserComponent</title>
<polygon fill="#ffffb3" stroke="black" points="865.87,-122 734.13,-122 734.13,-86 865.87,-86 865.87,-122"/>
<text text-anchor="middle" x="800" y="-99.8" font-family="Times,serif" font-size="14.00">AddUserComponent</text>
</g>
<!-- AddUserComponent&#45;&gt;AppModule -->
<g id="edge3" class="edge">
<title>AddUserComponent&#45;&gt;AppModule</title>
<path fill="none" stroke="black" d="M753.45,-122.11C753.45,-122.11 753.45,-140.99 753.45,-140.99"/>
<polygon fill="black" stroke="black" points="749.95,-140.99 753.45,-150.99 756.95,-140.99 749.95,-140.99"/>
</g>
<!-- AppComponent -->
<g id="node4" class="node">
<title>AppComponent</title>
<polygon fill="#ffffb3" stroke="black" points="715.94,-122 610.06,-122 610.06,-86 715.94,-86 715.94,-122"/>
<text text-anchor="middle" x="663" y="-99.8" font-family="Times,serif" font-size="14.00">AppComponent</text>
</g>
<!-- AppComponent&#45;&gt;AppModule -->
<g id="edge4" class="edge">
<title>AppComponent&#45;&gt;AppModule</title>
<path fill="none" stroke="black" d="M702.45,-122.11C702.45,-122.11 702.45,-140.99 702.45,-140.99"/>
<polygon fill="black" stroke="black" points="698.95,-140.99 702.45,-150.99 705.95,-140.99 698.95,-140.99"/>
</g>
<!-- GruopComponent -->
<g id="node5" class="node">
<title>GruopComponent</title>
<polygon fill="#ffffb3" stroke="black" points="592.6,-122 475.4,-122 475.4,-86 592.6,-86 592.6,-122"/>
<text text-anchor="middle" x="534" y="-99.8" font-family="Times,serif" font-size="14.00">GruopComponent</text>
</g>
<!-- GruopComponent&#45;&gt;AppModule -->
<g id="edge5" class="edge">
<title>GruopComponent&#45;&gt;AppModule</title>
<path fill="none" stroke="black" d="M534,-122.01C534,-138.05 534,-159 534,-159 534,-159 679.22,-159 679.22,-159"/>
<polygon fill="black" stroke="black" points="679.22,-162.5 689.22,-159 679.22,-155.5 679.22,-162.5"/>
</g>
<!-- HomeComponent -->
<g id="node6" class="node">
<title>HomeComponent</title>
<polygon fill="#ffffb3" stroke="black" points="457.55,-122 342.45,-122 342.45,-86 457.55,-86 457.55,-122"/>
<text text-anchor="middle" x="400" y="-99.8" font-family="Times,serif" font-size="14.00">HomeComponent</text>
</g>
<!-- HomeComponent&#45;&gt;AppModule -->
<g id="edge6" class="edge">
<title>HomeComponent&#45;&gt;AppModule</title>
<path fill="none" stroke="black" d="M400,-122.27C400,-140.56 400,-166 400,-166 400,-166 679.08,-166 679.08,-166"/>
<polygon fill="black" stroke="black" points="679.08,-169.5 689.08,-166 679.08,-162.5 679.08,-169.5"/>
</g>
<!-- ShowResultComponent -->
<g id="node7" class="node">
<title>ShowResultComponent</title>
<polygon fill="#ffffb3" stroke="black" points="324.5,-122 175.5,-122 175.5,-86 324.5,-86 324.5,-122"/>
<text text-anchor="middle" x="250" y="-99.8" font-family="Times,serif" font-size="14.00">ShowResultComponent</text>
</g>
<!-- ShowResultComponent&#45;&gt;AppModule -->
<g id="edge7" class="edge">
<title>ShowResultComponent&#45;&gt;AppModule</title>
<path fill="none" stroke="black" d="M250,-122.13C250,-142.57 250,-173 250,-173 250,-173 679.16,-173 679.16,-173"/>
<polygon fill="black" stroke="black" points="679.16,-176.5 689.16,-173 679.16,-169.5 679.16,-176.5"/>
</g>
<!-- AppComponent  -->
<g id="node10" class="node">
<title>AppComponent </title>
<polygon fill="#80b1d3" stroke="black" points="1024.44,-252 915.56,-252 915.56,-216 1024.44,-216 1024.44,-252"/>
<text text-anchor="middle" x="970" y="-229.8" font-family="Times,serif" font-size="14.00">AppComponent </text>
</g>
<!-- AppModule&#45;&gt;AppComponent  -->
<g id="edge9" class="edge">
<title>AppModule&#45;&gt;AppComponent </title>
<path fill="none" stroke="black" stroke-dasharray="1,5" d="M731,-187.11C731,-206.34 731,-234 731,-234 731,-234 905.47,-234 905.47,-234"/>
<polygon fill="black" stroke="black" points="905.47,-237.5 915.47,-234 905.47,-230.5 905.47,-237.5"/>
</g>
<!-- AppServerModule -->
<g id="node11" class="node">
<title>AppServerModule</title>
<polygon fill="#8dd3c7" stroke="black" points="1348.19,-252 1345.19,-256 1324.19,-256 1321.19,-252 1227.81,-252 1227.81,-216 1348.19,-216 1348.19,-252"/>
<text text-anchor="middle" x="1288" y="-229.8" font-family="Times,serif" font-size="14.00">AppServerModule</text>
</g>
<!-- AppModule&#45;&gt;AppServerModule -->
<g id="edge10" class="edge">
<title>AppModule&#45;&gt;AppServerModule</title>
<path fill="none" stroke="black" d="M772.87,-178C902.4,-178 1288,-178 1288,-178 1288,-178 1288,-205.97 1288,-205.97"/>
<polygon fill="black" stroke="black" points="1284.5,-205.97 1288,-215.97 1291.5,-205.97 1284.5,-205.97"/>
</g>
<!-- AppRoutingModule -->
<g id="node9" class="node">
<title>AppRoutingModule</title>
<polygon fill="#8dd3c7" stroke="black" points="152.27,-122 149.27,-126 128.27,-126 125.27,-122 23.73,-122 23.73,-86 152.27,-86 152.27,-122"/>
<text text-anchor="middle" x="88" y="-99.8" font-family="Times,serif" font-size="14.00">AppRoutingModule</text>
</g>
<!-- AppRoutingModule&#45;&gt;AppModule -->
<g id="edge8" class="edge">
<title>AppRoutingModule&#45;&gt;AppModule</title>
<path fill="none" stroke="black" d="M88,-122.01C88,-144.49 88,-180 88,-180 88,-180 679.31,-180 679.31,-180"/>
<polygon fill="black" stroke="black" points="679.31,-183.5 689.31,-180 679.31,-176.5 679.31,-183.5"/>
</g>
<!-- AppServerModule&#45;&gt;AppComponent  -->
<g id="edge11" class="edge">
<title>AppServerModule&#45;&gt;AppComponent </title>
<path fill="none" stroke="black" stroke-dasharray="1,5" d="M1227.81,-234C1227.81,-234 1034.63,-234 1034.63,-234"/>
<polygon fill="black" stroke="black" points="1034.63,-230.5 1024.63,-234 1034.63,-237.5 1034.63,-230.5"/>
</g>
</g>
</svg>
